<?xml version="1.0" encoding="UTF-8"?>
<svg width="120px" height="46px" viewBox="0 0 120 46" version="1.1" xmlns="http://www.w3.org/2000/svg" xmlns:xlink="http://www.w3.org/1999/xlink">
    <!-- Generator: Sketch 55.1 (78136) - https://sketchapp.com -->
    <title>planii</title>
    <desc>Created with Sketch.</desc>
    <g id="Page-1" stroke="none" stroke-width="1" fill="none" fill-rule="evenodd">
        <g id="Brand" transform="translate(-441.000000, -61.000000)" fill="#3D4BF0" fill-rule="nonzero">
            <g id="Logo" transform="translate(441.000000, 61.000000)">
                <path d="M14.1064257,11 C16.21487,11 18.0973813,11.5442122 19.7540161,12.6326531 C21.4106509,13.7210939 22.6991253,15.2601941 23.6194779,17.25 C24.5398306,19.2398059 25,21.527198 25,24.1122449 C25,26.6972918 24.5398306,28.959174 23.6194779,30.8979592 C22.6991253,32.8367444 21.4190176,34.3333281 19.7791165,35.3877551 C18.1392154,36.4421821 16.2483373,36.9693878 14.1064257,36.9693878 C12.3661225,36.9693878 10.8099132,36.5952418 9.437751,35.8469388 C8.06558886,35.0986357 7.01138253,34.0612311 6.2751004,32.7346939 L6.2751004,43.1428571 C6.2751004,44.0272153 5.99063203,44.7244872 5.42168675,45.2346939 C4.85274147,45.7449005 4.09973695,46 3.1626506,46 C2.22556426,46 1.46419302,45.7278939 0.878514056,45.1836735 C0.29283509,44.6394531 0,43.9251745 0,43.0408163 L0,14.1122449 C0,13.193873 0.276101657,12.4625878 0.828313253,11.9183673 C1.38052485,11.3741469 2.12516265,11.1020408 3.062249,11.1020408 C3.99933534,11.1020408 4.75233986,11.3741469 5.32128514,11.9183673 C5.89023042,12.4625878 6.1746988,13.193873 6.1746988,14.1122449 L6.1746988,15.3877551 C6.91098092,13.9931903 7.97355397,12.9132691 9.3624498,12.1479592 C10.7513456,11.3826492 12.3326551,11 14.1064257,11 Z M12.5,32 C14.5453436,32 16.1399943,31.3142926 17.284,29.9428571 C18.4280057,28.5714217 19,26.6328168 19,24.1269841 C19,21.5534263 18.4280057,19.5555627 17.284,18.1333333 C16.1399943,16.711104 14.5453436,16 12.5,16 C10.4199896,16 8.8166723,16.694173 7.69,18.0825397 C6.5633277,19.4709064 6,21.451839 6,24.0253968 C6,26.5650921 6.5633277,28.5290936 7.69,29.9174603 C8.8166723,31.305827 10.4199896,32 12.5,32 Z M33.976,37 C33.1119957,37 32.4000028,36.7402261 31.84,36.2206704 C31.2799972,35.7011147 31,34.9553121 31,33.9832402 L31,3.96648045 C31,2.99440855 31.2799972,2.25698575 31.84,1.75418994 C32.4000028,1.25139413 33.1119957,1 33.976,1 C34.8400043,1 35.5599971,1.25139413 36.136,1.75418994 C36.7120029,2.25698575 37,2.99440855 37,3.96648045 L37,33.9832402 C37,34.9553121 36.7120029,35.7011147 36.136,36.2206704 C35.5599971,36.7402261 34.8400043,37 33.976,37 Z M53.7638889,11 C57.2268692,11 59.7986027,11.8598473 61.4791667,13.5795678 C63.1597306,15.2992882 64,17.9128836 64,21.4204322 L64,33.8840864 C64,34.8035409 63.7283978,35.5271748 63.1851852,36.0550098 C62.6419726,36.5828448 61.8950665,36.8467583 60.9444444,36.8467583 C60.061724,36.8467583 59.3402806,36.5743315 58.7800926,36.0294695 C58.2199046,35.4846076 57.9398148,34.7694871 57.9398148,33.8840864 L57.9398148,32.7603143 C57.3626514,34.0884153 56.4544815,35.1270428 55.2152778,35.8762279 C53.9760741,36.625413 52.5416748,37 50.912037,37 C49.2484485,37 47.7376611,36.6594664 46.3796296,35.978389 C45.0215981,35.2973116 43.9521644,34.3608442 43.1712963,33.1689587 C42.3904282,31.9770733 42,30.6489923 42,29.1846758 C42,27.3457668 42.4668163,25.8984991 43.400463,24.8428291 C44.3341096,23.7871591 45.8533845,23.0209585 47.9583333,22.5442043 C50.0632821,22.0674501 52.9660309,21.8290766 56.6666667,21.8290766 L57.9398148,21.8290766 L57.9398148,20.654224 C57.9398148,18.9855843 57.5833369,17.7681767 56.8703704,17.0019646 C56.1574038,16.2357526 55.0030944,15.8526523 53.4074074,15.8526523 C52.4228346,15.8526523 51.4213014,15.997379 50.4027778,16.2868369 C49.3842542,16.5762948 48.1790193,16.9934485 46.787037,17.5383104 C45.9043166,17.9810107 45.2592613,18.2023576 44.8518519,18.2023576 C44.2407377,18.2023576 43.7399711,17.9810107 43.349537,17.5383104 C42.959103,17.0956101 42.7638889,16.516703 42.7638889,15.8015717 C42.7638889,15.2226559 42.9081776,14.7203689 43.1967593,14.2946955 C43.4853409,13.8690221 43.9691324,13.4688951 44.6481481,13.0943026 C45.8364257,12.447279 47.2538498,11.9364786 48.900463,11.5618861 C50.5470761,11.1872935 52.1682019,11 53.7638889,11 Z M52.0837696,32 C53.8289791,32 55.2513034,31.445632 56.3507853,30.3368794 C57.4502673,29.2281268 58,27.7966991 58,26.0425532 L58,25 L57.0575916,25 C54.719011,25 52.9040204,25.0992898 51.6125654,25.2978723 C50.3211105,25.4964549 49.3961634,25.8439691 48.8376963,26.3404255 C48.2792293,26.8368819 48,27.5153621 48,28.3758865 C48,29.4349935 48.3926662,30.3037791 49.1780105,30.9822695 C49.9633547,31.6607599 50.9319314,32 52.0837696,32 Z M85.2620087,11 C88.2081661,11 90.4010117,11.8546923 91.8406114,13.5641026 C93.280211,15.2735128 94,17.8546836 94,21.3076923 L94,33.9230769 C94,34.8803467 93.7238019,35.6324759 93.1713974,36.1794872 C92.6189929,36.7264985 91.8573557,37 90.8864629,37 C89.9155701,37 89.1455633,36.7264985 88.5764192,36.1794872 C88.0072752,35.6324759 87.7227074,34.8803467 87.7227074,33.9230769 L87.7227074,21.6666667 C87.7227074,19.717939 87.3628129,18.2991497 86.6430131,17.4102564 C85.9232133,16.5213631 84.7933119,16.0769231 83.2532751,16.0769231 C81.4454058,16.0769231 79.9974581,16.6581138 78.9093886,17.8205128 C77.8213192,18.9829118 77.2772926,20.5384518 77.2772926,22.4871795 L77.2772926,33.9230769 C77.2772926,34.8803467 76.9927248,35.6324759 76.4235808,36.1794872 C75.8544367,36.7264985 75.0844299,37 74.1135371,37 C73.1426443,37 72.3810071,36.7264985 71.8286026,36.1794872 C71.2761981,35.6324759 71,34.8803467 71,33.9230769 L71,14.0769231 C71,13.1880297 71.2845678,12.4700882 71.8537118,11.9230769 C72.4228558,11.3760656 73.1928627,11.1025641 74.1637555,11.1025641 C75.034211,11.1025641 75.7456304,11.3675187 76.2980349,11.8974359 C76.8504394,12.4273531 77.1266376,13.1196538 77.1266376,13.974359 L77.1266376,15.3589744 C77.9636141,13.9572579 79.0851458,12.8803456 80.4912664,12.1282051 C81.8973869,11.3760646 83.4876185,11 85.2620087,11 Z M102.976,37 C102.111996,37 101.400003,36.7339961 100.84,36.2019802 C100.279997,35.6699643 100,34.9062756 100,33.9108911 L100,14.0376238 C100,13.0422392 100.279997,12.2871313 100.84,11.7722772 C101.400003,11.2574232 102.111996,11 102.976,11 C103.840004,11 104.559997,11.2574232 105.136,11.7722772 C105.712003,12.2871313 106,13.0422392 106,14.0376238 L106,33.9108911 C106,34.9062756 105.712003,35.6699643 105.136,36.2019802 C104.559997,36.7339961 103.840004,37 102.976,37 Z M103.5,7 C102.427923,7 101.57658,6.67544184 100.945946,6.02631579 C100.315312,5.37718974 100,4.52632105 100,3.47368421 C100,2.42104737 100.315312,1.57895053 100.945946,0.947368421 C101.57658,0.315786316 102.427923,0 103.5,0 C104.540546,0 105.384006,0.315786316 106.030405,0.947368421 C106.676805,1.57895053 107,2.42104737 107,3.47368421 C107,4.52632105 106.684688,5.37718974 106.054054,6.02631579 C105.42342,6.67544184 104.572077,7 103.5,7 Z M115.976,37 C115.111996,37 114.400003,36.7339961 113.84,36.2019802 C113.279997,35.6699643 113,34.9062756 113,33.9108911 L113,14.0376238 C113,13.0422392 113.279997,12.2871313 113.84,11.7722772 C114.400003,11.2574232 115.111996,11 115.976,11 C116.840004,11 117.559997,11.2574232 118.136,11.7722772 C118.712003,12.2871313 119,13.0422392 119,14.0376238 L119,33.9108911 C119,34.9062756 118.712003,35.6699643 118.136,36.2019802 C117.559997,36.7339961 116.840004,37 115.976,37 Z M116.5,7 C115.427923,7 114.57658,6.67544184 113.945946,6.02631579 C113.315312,5.37718974 113,4.52632105 113,3.47368421 C113,2.42104737 113.315312,1.57895053 113.945946,0.947368421 C114.57658,0.315786316 115.427923,0 116.5,0 C117.540546,0 118.384006,0.315786316 119.030405,0.947368421 C119.676805,1.57895053 120,2.42104737 120,3.47368421 C120,4.52632105 119.684688,5.37718974 119.054054,6.02631579 C118.42342,6.67544184 117.572077,7 116.5,7 Z" id="planii"></path>
            </g>
        </g>
    </g>
</svg>